<?xml version="1.0" encoding="UTF-8" standalone="no"?>
<svg
   xmlns:dc="http://purl.org/dc/elements/1.1/"
   xmlns:cc="http://creativecommons.org/ns#"
   xmlns:rdf="http://www.w3.org/1999/02/22-rdf-syntax-ns#"
   xmlns:svg="http://www.w3.org/2000/svg"
   xmlns="http://www.w3.org/2000/svg"
   xmlns:sodipodi="http://sodipodi.sourceforge.net/DTD/sodipodi-0.dtd"
   xmlns:inkscape="http://www.inkscape.org/namespaces/inkscape"
   version="1"
   viewBox ="0 0 1325 1337"
   width="1325"
   height="1337"
   id="svg3773"
   sodipodi:docname="PrimoseLogoRelative.svg"
   inkscape:version="0.92.4 (5da689c313, 2019-01-14)">
  <metadata
     id="metadata3779">
    <rdf:RDF>
      <cc:Work
         rdf:about="">
        <dc:format>image/svg+xml</dc:format>
        <dc:type
           rdf:resource="http://purl.org/dc/dcmitype/StillImage" />
        <dc:title></dc:title>
      </cc:Work>
    </rdf:RDF>
  </metadata>
  <defs
     id="defs3777" />
  <sodipodi:namedview
     pagecolor="#ffffff"
     bordercolor="#666666"
     borderopacity="1"
     objecttolerance="10"
     gridtolerance="10"
     guidetolerance="10"
     inkscape:pageopacity="0"
     inkscape:pageshadow="2"
     inkscape:window-width="640"
     inkscape:window-height="480"
     id="namedview3775"
     showgrid="false"
     inkscape:zoom="0.6342558"
     inkscape:cx="662.5"
     inkscape:cy="668.5"
     inkscape:window-x="0"
     inkscape:window-y="0"
     inkscape:window-maximized="1"
     inkscape:current-layer="svg3773" />
  <rect
     width="100%"
     height="100%"
     x="-963"
     y="-632"
     fill="none"
     id="rect3747" />
  <g
     class="currentLayer"
     stroke="#9b60e1"
     id="g3771">
    <path
       d="M575 1321c-73-22-76-33-27-95 23-30 71-88 108-129 36-41 73-86 83-100 18-24 18-25 33-6 27 37 74 175 74 219 0 56-32 91-103 112-62 18-107 18-168-1z"
       fill="#9b60e1"
       id="path3749" />
    <path
       d="M476 1205c0-56 50-177 124-302 66-111 58-110 113-18l25 43-26 39c-14 22-54 70-88 107a3080 3080 0 0 0-144 173c-2 0-4-19-4-42z"
       fill="#8f43db"
       id="path3751" />
    <path
       d="M271 1196c-53-26-111-84-135-134-27-56-26-63 18-74 42-11 351-35 358-28 3 2-6 34-20 71-65 171-122 214-221 165zm711-4c-9-37-36-368-30-374 8-8 126 38 181 71 72 44 89 90 59 163-21 49-90 120-141 144-57 27-61 26-69-4z"
       fill="#9b60e1"
       id="path3753" />
    <path
       d="M910 1182c-44-44-121-246-148-384l-6-34 41 7c23 4 56 13 74 20 39 17 40 21 55 231 6 77 13 150 16 163 8 29-1 28-32-3zM129 943c8-25 91-75 174-106 95-34 250-76 258-69 2 3-3 34-11 71-12 53-20 67-37 72-12 3-85 11-162 16-77 6-159 15-183 19-31 6-42 6-39-3z"
       fill="#8f43db"
       id="path3755" />
    <path
       d="M65 842c-15-8-35-31-45-52-37-73-18-273 26-273 15 0 308 238 309 251 1 8-106 56-166 74s-91 18-124 0z"
       fill="#9b60e1"
       id="path3757" />
    <path
       d="M1121 838l-88-34c-57-25-227-126-227-137 0-5 25-23 56-41 56-32 57-32 88-15 17 9 72 53 121 97 50 45 107 92 128 106 20 14 37 30 37 34 0 15-62 9-115-10z"
       fill="#8f43db"
       id="path3759" />
    <path
       d="M1225 785c-24-17-78-61-119-97l-109-93-34-26 59-30c81-41 167-65 204-57 64 14 106 104 97 210-4 59-29 125-46 125-4 0-28-14-52-32z"
       fill="#9b60e1"
       id="path3761" />
    <path
       d="M350 709c-28-20-83-66-123-102-39-36-90-77-113-92-54-37-31-46 58-25 87 22 344 154 344 177 0 5-17 19-37 31l-58 35c-17 11-27 8-71-24zm176-144c-108-26-107-25-114-68-3-22-10-102-16-179-5-76-12-151-16-167l-7-29 32 30c34 32 66 93 99 192 26 74 65 224 60 227-1 2-19-1-38-6zm234-12l17-73c14-61 10-59 204-73 72-5 149-12 173-16 36-5 41-4 36 10-16 40-202 120-372 159-63 15-64 15-58-7z"
       fill="#8f43db"
       id="path3763" />
    <path
       d="M311 503c-143-53-195-93-195-150 0-72 49-147 129-198 58-36 87-37 96-1 6 26 36 366 32 369-1 1-29-8-62-20z"
       fill="#9b60e1"
       id="path3765" />
    <path
       d="M620 470c-32-51-34-58-23-80 17-31 225-277 239-281 16-6 12 50-9 109-30 89-149 309-166 309-2 0-21-25-41-57z"
       fill="#8f43db"
       id="path3767" />
    <path
       d="M806 377c0-33 66-174 99-212 34-38 43-43 79-42 74 2 175 81 209 162 26 63 21 66-207 82-80 6-153 13-162 16-10 3-18 0-18-6zm-269-57c-37-77-61-153-61-198 0-57 36-90 121-111 61-15 71-15 130 0 91 24 97 32 58 87-18 24-64 80-103 124s-82 95-96 113l-26 32z"
       fill="#9b60e1"
       id="path3769" />
  </g>
</svg>
